<svg width="200" height="200" viewBox="0 0 200 200" fill="none" xmlns="http://www.w3.org/2000/svg">
<mask id="mask0_44_122" style="mask-type:luminance" maskUnits="userSpaceOnUse" x="0" y="0" width="200" height="200">
<path d="M0 -2.98023e-06H200V200H0V-2.98023e-06Z" fill="white"/>
</mask>
<g mask="url(#mask0_44_122)">
<path d="M110.866 72.8H116.334C122.165 72.8 126.709 75.1764 130.961 79.472L161.469 109.988C166.5 115.02 166.467 123.227 161.435 128.259C156.404 133.29 148.212 133.332 143.181 128.3L110.869 95.9948L102.152 87.2126L94.161 72.8H110.866Z" fill="#890069"/>
<path d="M89.0634 142.183L65.9544 119.077L89.0634 95.9697L97.781 87.2001L105.772 72.8001H89.0666H83.5982C77.7672 72.8001 73.2234 75.1625 68.9714 79.4581L39.0758 109.356C38.8792 109.53 38.6854 109.716 38.4972 109.904C36.5938 111.808 35.407 114.168 34.9378 116.635C34.934 116.654 34.9314 116.676 34.9276 116.696C34.8942 116.876 34.8634 117.058 34.8376 117.24C34.83 117.293 34.825 117.346 34.8182 117.399C34.7988 117.549 34.7796 117.699 34.7654 117.849C34.7582 117.926 34.7544 118.002 34.7486 118.079C34.7388 118.206 34.7282 118.334 34.7222 118.462C34.7176 118.557 34.717 118.651 34.7146 118.746C34.7118 118.856 34.7076 118.967 34.7076 119.077C34.7076 119.187 34.7118 119.297 34.7146 119.407C34.717 119.502 34.7176 119.597 34.7222 119.692C34.728 119.819 34.7388 119.946 34.7484 120.074C34.7544 120.151 34.7582 120.227 34.7656 120.304C34.7796 120.454 34.7986 120.602 34.8178 120.751C34.8248 120.805 34.83 120.859 34.8376 120.913C34.863 121.093 34.8936 121.271 34.9266 121.45C34.9308 121.472 34.9338 121.494 34.938 121.516C35.4074 123.982 36.594 126.339 38.4972 128.242C38.6842 128.429 38.8766 128.607 39.0718 128.78L68.9714 158.718C73.2234 163.014 77.7672 165.4 83.5982 165.4H89.0666H105.772L97.781 150.976L89.0634 142.183Z" fill="#85CC79"/>
<path d="M161.46 109.956C156.428 104.924 148.237 104.891 143.205 109.923L110.894 142.233L103.11 150.016L126.676 40.0591C127.246 37.4221 125.035 35.0001 122.09 35.0001H104.702C102.459 35.0001 100.532 36.4219 100.111 38.4335L74.8463 160.319C74.2961 162.949 76.5045 165.4 79.4375 165.4H95.9787H96.6185H110.891H116.359C122.19 165.4 126.734 163.039 130.986 158.744L161.494 128.235C166.525 123.204 166.492 114.987 161.46 109.956Z" fill="#630043"/>
<path d="M92.9285 72.865L100.111 38.4336C100.532 36.422 102.459 35.0002 104.702 35.0002H122.09C124.468 35.0002 125.58 36.4108 125.601 36.4072L92.9285 72.865Z" fill="#890069"/>
</g>
</svg>
