<svg width="65" height="65" viewBox="0 0 65 65" fill="none" xmlns="http://www.w3.org/2000/svg">
<path d="M11.9884 55.252L7.42625 4.0625H57.5737L53.0055 55.2439L32.4695 60.9375L11.9884 55.252Z" fill="#1572B6"/>
<path d="M32.5 56.5866L49.0953 51.9858L52.9994 8.2489H32.5V56.5866Z" fill="#33A9DC"/>
<path d="M32.5 26.7942H40.8078L41.3806 20.3653H32.5V14.0867H48.2422L48.0919 15.7706L46.5502 33.0728H32.5V26.7942Z" fill="white"/>
<path d="M32.5386 43.099L32.5102 43.1072L25.5186 41.2181L25.0717 36.2111H18.7687L19.6483 46.0687L32.5081 49.6397L32.5386 49.6315V43.099Z" fill="#EBEBEB"/>
<path d="M40.2736 32.8068L39.518 41.2141L32.5162 43.1032V49.6357L45.3862 46.0688L45.4817 45.0085L46.5725 32.8068H40.2736Z" fill="white"/>
<path d="M32.5223 14.0867V20.3653H17.357L17.2311 18.9535L16.9447 15.7706L16.7944 14.0867H32.5223ZM32.5 26.7942V33.0728H25.5958L25.4698 31.661L25.1855 28.4781L25.0352 26.7942H32.5Z" fill="#EBEBEB"/>
</svg>
