<svg width="55" height="55" viewBox="0 0 55 55" fill="none" xmlns="http://www.w3.org/2000/svg">
<g clip-path="url(#clip0_56_11)">
<path fill-rule="evenodd" clip-rule="evenodd" d="M7.91514e-07 27.5004C0.000177143 22.7552 1.22826 18.0907 3.56483 13.9605C5.9014 9.83036 9.26695 6.3751 13.3342 3.93071C17.4015 1.48632 22.0321 0.135987 26.7757 0.0110065C31.5194 -0.113974 36.2146 0.990653 40.405 3.21748C44.5953 5.4443 48.1381 8.71755 50.6889 12.7189C53.2397 16.7203 54.7117 21.3137 54.9618 26.0524C55.2118 30.7911 54.2314 35.5138 52.1159 39.7614C50.0004 44.0091 46.8217 47.637 42.889 50.2924L17.9923 15.4371C17.7667 15.121 17.4466 14.8847 17.078 14.7622C16.7095 14.6398 16.3116 14.6375 15.9417 14.7558C15.5717 14.8741 15.249 15.1067 15.0198 15.4203C14.7907 15.7339 14.667 16.1121 14.6667 16.5004V44.0004H18.3333V22.2204L39.71 52.1478C35.5168 54.2256 30.8627 55.199 26.1883 54.9757C21.5139 54.7525 16.9737 53.3401 12.9976 50.8722C9.02151 48.4043 5.74096 44.9625 3.46649 40.8727C1.19202 36.7828 -0.00112186 32.1802 7.91514e-07 27.5004ZM36.6667 36.6671V14.6671H40.3333V36.6671H36.6667Z" fill="white"/>
</g>
<defs>
<clipPath id="clip0_56_11">
<rect width="55" height="55" fill="white"/>
</clipPath>
</defs>
</svg>
