<svg width="60" height="60" viewBox="0 0 60 60" fill="none" xmlns="http://www.w3.org/2000/svg">
<g opacity="0.9" clip-path="url(#clip0_44_94)">
<rect width="60" height="60" fill="white"/>
<path fill-rule="evenodd" clip-rule="evenodd" d="M44.35 8.92043L44.825 9.1988L49.775 12.3394C50.4011 12.737 50.9248 13.264 51.3071 13.8811C51.6893 14.4983 51.9202 15.1896 51.9825 15.9034L52 16.2984V46.1315C51.9999 47.2664 51.5736 48.364 50.7979 49.2261C50.0222 50.0882 48.9483 50.658 47.77 50.8328L47.3825 50.8756L18.56 52.986C17.7928 53.0421 17.0223 52.929 16.3086 52.6554C15.5949 52.3818 14.9571 51.9551 14.445 51.4086L14.1775 51.0969L8.5 43.8926C7.63715 42.7974 7.12341 41.4892 7.02 40.1239L7 39.61V14.8495C7.00008 13.7145 7.42643 12.6169 8.20209 11.7548C8.97775 10.8927 10.0517 10.3229 11.23 10.1481L11.6175 10.1053L40.0875 8.02108C41.5698 7.91243 43.0525 8.22546 44.3475 8.92043H44.35ZM47 19.9743L19.5 21.9871V48.1443L47 46.1315V19.9743ZM39.5 23.3528C40.163 23.3528 40.7989 23.6035 41.2678 24.0497C41.7366 24.4958 42 25.101 42 25.732V42.3866C42 43.0176 41.7366 43.6227 41.2678 44.0689C40.7989 44.5151 40.163 44.7658 39.5 44.7658H38.25C37.8229 44.7659 37.4028 44.6619 37.03 44.4636C36.6571 44.2654 36.3438 43.9795 36.12 43.6333L29.5 33.3931V43.5762C29.5 44.2072 29.2366 44.8124 28.7678 45.2585C28.2989 45.7047 27.663 45.9554 27 45.9554C26.337 45.9554 25.7011 45.7047 25.2322 45.2585C24.7634 44.8124 24.5 44.2072 24.5 43.5762V26.9216C24.5 26.2906 24.7634 25.6855 25.2322 25.2393C25.7011 24.7931 26.337 24.5424 27 24.5424H28.25C28.6771 24.5423 29.0972 24.6463 29.47 24.8446C29.8429 25.0428 30.1562 25.3287 30.38 25.6749L37 35.9127V25.732C37 25.101 37.2634 24.4958 37.7322 24.0497C38.2011 23.6035 38.837 23.3528 39.5 23.3528ZM40.47 12.7653L15.1125 14.621L17.955 17.3262L45.45 15.3158L42.05 13.1578C41.5844 12.8623 41.028 12.7241 40.47 12.7653Z" fill="white"/>
</g>
<defs>
<clipPath id="clip0_44_94">
<rect width="60" height="60" fill="white"/>
</clipPath>
</defs>
</svg>
