<svg width="65" height="65" viewBox="0 0 65 65" fill="none" xmlns="http://www.w3.org/2000/svg">
<g opacity="0.9" clip-path="url(#clip0_56_7)">
<path fill-rule="evenodd" clip-rule="evenodd" d="M48.5875 6.59206L49.1021 6.90894L54.4646 10.4839C55.1429 10.9366 55.7102 11.5365 56.1243 12.239C56.5384 12.9415 56.7885 13.7284 56.856 14.541L56.875 14.9906V48.9504C56.8749 50.2423 56.413 51.4917 55.5727 52.4731C54.7324 53.4544 53.569 54.1031 52.2925 54.3021L51.8727 54.3508L20.6483 56.7531C19.8172 56.817 18.9825 56.6882 18.2093 56.3768C17.4361 56.0653 16.7452 55.5796 16.1904 54.9575L15.9006 54.6027L9.75 46.4019C8.81525 45.1552 8.25869 43.666 8.14667 42.1119L8.125 41.5269V13.3412C8.12509 12.0493 8.58696 10.7999 9.42726 9.81855C10.2676 8.83721 11.431 8.18852 12.7075 7.98956L13.1273 7.94081L43.9698 5.56831C45.5756 5.44462 47.1819 5.80096 48.5848 6.59206H48.5875ZM51.4583 19.175L21.6667 21.4662V51.2416L51.4583 48.9504V19.175ZM43.3333 23.0208C44.0516 23.0208 44.7405 23.3062 45.2484 23.8141C45.7563 24.322 46.0417 25.0109 46.0417 25.7291V44.6875C46.0417 45.4058 45.7563 46.0947 45.2484 46.6026C44.7405 47.1105 44.0516 47.3958 43.3333 47.3958H41.9792C41.5164 47.3959 41.0614 47.2775 40.6575 47.0518C40.2535 46.8262 39.9141 46.5007 39.6717 46.1066L32.5 34.45V46.0416C32.5 46.7599 32.2147 47.4488 31.7067 47.9567C31.1988 48.4646 30.51 48.75 29.7917 48.75C29.0734 48.75 28.3845 48.4646 27.8766 47.9567C27.3687 47.4488 27.0833 46.7599 27.0833 46.0416V27.0833C27.0833 26.365 27.3687 25.6761 27.8766 25.1682C28.3845 24.6603 29.0734 24.375 29.7917 24.375H31.1458C31.6085 24.3748 32.0636 24.4933 32.4675 24.719C32.8715 24.9446 33.2109 25.27 33.4533 25.6641L40.625 37.3181V25.7291C40.625 25.0109 40.9103 24.322 41.4183 23.8141C41.9262 23.3062 42.615 23.0208 43.3333 23.0208ZM44.3842 10.9687L16.9135 13.0812L19.9929 16.1606L49.7792 13.8721L46.0958 11.4156C45.5914 11.0793 44.9887 10.9219 44.3842 10.9687Z" fill="white"/>
</g>
<defs>
<clipPath id="clip0_56_7">
<rect width="65" height="65" fill="white"/>
</clipPath>
</defs>
</svg>
