<svg width="60" height="60" viewBox="0 0 60 60" fill="none" xmlns="http://www.w3.org/2000/svg">
<path d="M30 24.6487C27.0506 24.6487 24.6488 27.0506 24.6488 29.9999C24.6488 32.9493 27.0506 35.3512 30 35.3512C32.9494 35.3512 35.3512 32.9493 35.3512 29.9999C35.3512 27.0506 32.9494 24.6487 30 24.6487ZM15.0188 40.6349L13.8375 40.3424C5.0475 38.1149 0 34.3462 0 29.9906C0 25.6349 5.04938 21.8662 13.8375 19.6387L15.0188 19.3462L15.3506 20.5181C16.2423 23.5875 17.3823 26.5792 18.7594 29.4637L19.0125 29.9906L18.7594 30.5268C17.3795 33.41 16.2393 36.402 15.3506 39.4724L15.0188 40.6349ZM13.2919 22.3724C6.61125 24.2474 2.51062 27.1274 2.51062 29.9906C2.51062 32.8537 6.61313 35.7224 13.2919 37.6087C14.1106 35.0074 15.099 32.4626 16.2506 29.9906C15.0974 27.5193 14.1089 24.9743 13.2919 22.3724ZM44.9813 40.6349L44.6494 39.4631C43.7592 36.3962 42.6192 33.4074 41.2406 30.5268L40.9875 29.9906L41.2406 29.4543C42.6205 26.5711 43.7607 23.5791 44.6494 20.5087L44.9813 19.3462L46.1625 19.6387C54.9525 21.8662 60 25.6349 60 29.9906C60 34.3462 54.9506 38.1149 46.1625 40.3424L44.9813 40.6349ZM43.7494 29.9906C44.9049 32.4609 45.8933 35.006 46.7081 37.6087C53.3981 35.7243 57.4894 32.8537 57.4894 29.9906C57.4894 27.1274 53.3869 24.2587 46.7081 22.3724C45.8875 24.9731 44.8992 27.5178 43.7494 29.9906ZM13.2712 22.3631L12.9394 21.1912C10.4681 12.4799 11.22 6.23057 15 4.05182C18.7106 1.91244 24.6581 4.44182 30.8981 10.8487L31.7475 11.7187L30.8981 12.5887C28.6822 14.8942 26.6574 17.3762 24.8438 20.0099L24.5025 20.4881L23.9156 20.5368C20.7253 20.7886 17.5606 21.2984 14.4525 22.0612L13.2712 22.3631ZM18.0169 5.79182C17.3438 5.79182 16.7475 5.92869 16.2488 6.22119C13.7681 7.65744 13.3294 12.6374 15.0375 19.3556C17.7027 18.7594 20.4041 18.3385 23.1244 18.0956C24.6905 15.865 26.403 13.741 28.2506 11.7374C24.3544 7.93869 20.6625 5.79182 18.0169 5.79182ZM41.9925 56.6887C41.9831 56.6887 41.9831 56.6887 41.9925 56.6887C38.4281 56.6887 33.8475 54.0131 29.1019 49.1306L28.2525 48.2606L29.1019 47.3906C31.3178 45.085 33.3426 42.6031 35.1562 39.9693L35.4881 39.4912L36.075 39.4331C39.2695 39.1897 42.438 38.6798 45.5475 37.9087L46.7288 37.6162L47.0606 38.7881C49.5319 47.4993 48.78 53.7393 45 55.9162C44.0861 56.4414 43.0464 56.7097 41.9925 56.6887ZM31.7475 48.2418C35.6437 52.0406 39.3356 54.1893 41.9812 54.1893H41.9906C42.6544 54.1893 43.2506 54.0431 43.7494 53.7599C46.23 52.3237 46.68 47.3437 44.9606 40.6256C42.2959 41.2224 39.5943 41.6402 36.8737 41.8762C35.3077 44.1097 33.5952 46.235 31.7475 48.2418ZM46.7288 22.3631L45.5475 22.0612C42.4358 21.301 39.2681 20.7912 36.075 20.5368L35.4881 20.4881L35.1562 20.0099C33.3426 17.3762 31.3178 14.8942 29.1019 12.5887L28.2525 11.7187L29.1019 10.8487C35.3419 4.44182 41.2894 1.91244 45 4.05182C48.78 6.22869 49.5319 12.4799 47.0606 21.1912L46.7288 22.3631ZM36.8756 18.0956C39.596 18.3378 42.2974 18.7587 44.9625 19.3556C46.6819 12.6374 46.2319 7.65557 43.7513 6.22119C41.28 4.79619 36.6319 6.98244 31.7494 11.7393C33.592 13.7472 35.3043 15.8709 36.8756 18.0974V18.0956ZM18.0169 56.6887C16.9613 56.7074 15.9169 56.4449 15 55.9181C11.22 53.7412 10.4681 47.4993 12.9394 38.7899L13.2712 37.6181L14.4525 37.9106C17.3438 38.6437 20.5275 39.1499 23.9156 39.4349L24.5025 39.4931L24.8344 39.9712C26.648 42.605 28.6728 45.0869 30.8888 47.3924L31.7381 48.2624L30.8888 49.1324C26.1525 54.0149 21.5719 56.6906 18.0169 56.6906V56.6887ZM15.0394 40.6256C13.32 47.3437 13.77 52.3256 16.2506 53.7599C18.7219 55.1662 23.3606 52.9987 28.2525 48.2418C26.4048 46.235 24.6923 44.1079 23.1262 41.8743C20.4057 41.639 17.704 41.2231 15.0394 40.6256ZM30 42.1968C27.9394 42.1968 25.83 42.1087 23.7113 41.9324L23.1244 41.8837L22.7831 41.3962C21.5863 39.6766 20.4622 37.9075 19.4137 36.0937C18.3631 34.2798 17.3891 32.4225 16.4944 30.5268L16.2412 29.9906L16.4944 29.4543C18.2869 25.6638 20.3904 22.0282 22.7831 18.5849L23.1244 18.0974L23.7113 18.0487C27.8963 17.6962 32.1037 17.6962 36.2887 18.0487L36.8756 18.0974L37.2169 18.5849C39.6127 22.0263 41.7163 25.6621 43.5056 29.4543L43.7587 29.9906L43.5056 30.5268C41.7199 34.3209 39.6161 37.9571 37.2169 41.3962L36.8756 41.8837L36.2887 41.9324C34.1971 42.1075 32.099 42.1957 30 42.1968ZM24.5119 39.4818C28.2038 39.7649 31.7962 39.7649 35.4975 39.4818C37.5617 36.4591 39.3962 33.2859 40.9856 29.9887C39.4029 26.6861 37.5649 23.5121 35.4881 20.4956C31.8349 20.2124 28.1651 20.2124 24.5119 20.4956C22.4337 23.5111 20.5955 26.6853 19.0144 29.9887C20.6042 33.2875 22.442 36.461 24.5119 39.4818Z" fill="#61DAFB"/>
</svg>
